<svg width="16" height="16" viewBox="0 0 16 16" fill="none" xmlns="http://www.w3.org/2000/svg">
<g clip-path="url(#clip0_202_4181)">
<path d="M8 10C9.10457 10 10 9.10457 10 8C10 6.89543 9.10457 6 8 6C6.89543 6 6 6.89543 6 8C6 9.10457 6.89543 10 8 10Z" stroke="white" stroke-width="2" stroke-linecap="round" stroke-linejoin="round"/>
<path d="M12.9332 9.99996C12.8444 10.201 12.818 10.4241 12.8572 10.6404C12.8964 10.8566 12.9995 11.0562 13.1532 11.2133L13.1932 11.2533C13.3171 11.3771 13.4155 11.5242 13.4826 11.686C13.5497 11.8479 13.5842 12.0214 13.5842 12.1966C13.5842 12.3718 13.5497 12.5453 13.4826 12.7072C13.4155 12.8691 13.3171 13.0161 13.1932 13.14C13.0693 13.2639 12.9223 13.3623 12.7604 13.4294C12.5986 13.4965 12.4251 13.531 12.2498 13.531C12.0746 13.531 11.9011 13.4965 11.7392 13.4294C11.5774 13.3623 11.4303 13.2639 11.3065 13.14L11.2665 13.1C11.1094 12.9463 10.9098 12.8432 10.6936 12.804C10.4773 12.7647 10.2542 12.7912 10.0532 12.88C9.85599 12.9645 9.68783 13.1048 9.56937 13.2836C9.45092 13.4625 9.38736 13.6721 9.3865 13.8866V14C9.3865 14.3536 9.24603 14.6927 8.99598 14.9428C8.74593 15.1928 8.40679 15.3333 8.05317 15.3333C7.69955 15.3333 7.36041 15.1928 7.11036 14.9428C6.86031 14.6927 6.71984 14.3536 6.71984 14V13.94C6.71468 13.7193 6.64325 13.5053 6.51484 13.3258C6.38644 13.1462 6.20699 13.0095 5.99984 12.9333C5.79876 12.8445 5.57571 12.8181 5.35944 12.8573C5.14318 12.8965 4.94362 12.9996 4.7865 13.1533L4.7465 13.1933C4.62267 13.3173 4.47562 13.4156 4.31376 13.4827C4.15189 13.5498 3.97839 13.5843 3.80317 13.5843C3.62795 13.5843 3.45445 13.5498 3.29258 13.4827C3.13072 13.4156 2.98367 13.3173 2.85984 13.1933C2.73587 13.0695 2.63752 12.9224 2.57042 12.7605C2.50333 12.5987 2.46879 12.4252 2.46879 12.25C2.46879 12.0747 2.50333 11.9012 2.57042 11.7394C2.63752 11.5775 2.73587 11.4305 2.85984 11.3066L2.89984 11.2666C3.05353 11.1095 3.15663 10.9099 3.19584 10.6937C3.23505 10.4774 3.20858 10.2544 3.11984 10.0533C3.03533 9.85611 2.89501 9.68795 2.71615 9.5695C2.53729 9.45105 2.32769 9.38748 2.11317 9.38663H1.99984C1.64622 9.38663 1.30708 9.24615 1.05703 8.9961C0.80698 8.74605 0.666504 8.40691 0.666504 8.05329C0.666504 7.69967 0.80698 7.36053 1.05703 7.11048C1.30708 6.86043 1.64622 6.71996 1.99984 6.71996H2.05984C2.2805 6.7148 2.49451 6.64337 2.67404 6.51497C2.85357 6.38656 2.99031 6.20712 3.0665 5.99996C3.15525 5.79888 3.18172 5.57583 3.14251 5.35957C3.10329 5.1433 3.00019 4.94375 2.8465 4.78663L2.8065 4.74663C2.68254 4.62279 2.58419 4.47574 2.51709 4.31388C2.44999 4.15202 2.41545 3.97851 2.41545 3.80329C2.41545 3.62807 2.44999 3.45457 2.51709 3.29271C2.58419 3.13084 2.68254 2.98379 2.8065 2.85996C2.93033 2.73599 3.07739 2.63765 3.23925 2.57055C3.40111 2.50345 3.57462 2.46891 3.74984 2.46891C3.92506 2.46891 4.09856 2.50345 4.26042 2.57055C4.42229 2.63765 4.56934 2.73599 4.69317 2.85996L4.73317 2.89996C4.89029 3.05365 5.08985 3.15675 5.30611 3.19596C5.52237 3.23517 5.74543 3.2087 5.9465 3.11996H5.99984C6.19702 3.03545 6.36518 2.89513 6.48363 2.71627C6.60208 2.53741 6.66565 2.32782 6.6665 2.11329V1.99996C6.6665 1.64634 6.80698 1.3072 7.05703 1.05715C7.30708 0.807102 7.64621 0.666626 7.99984 0.666626C8.35346 0.666626 8.6926 0.807102 8.94265 1.05715C9.19269 1.3072 9.33317 1.64634 9.33317 1.99996V2.05996C9.33403 2.27448 9.39759 2.48408 9.51604 2.66294C9.63449 2.8418 9.80266 2.98212 9.99984 3.06663C10.2009 3.15537 10.424 3.18184 10.6402 3.14263C10.8565 3.10342 11.0561 3.00032 11.2132 2.84663L11.2532 2.80663C11.377 2.68266 11.5241 2.58431 11.6859 2.51721C11.8478 2.45011 12.0213 2.41558 12.1965 2.41558C12.3717 2.41558 12.5452 2.45011 12.7071 2.51721C12.869 2.58431 13.016 2.68266 13.1398 2.80663C13.2638 2.93046 13.3622 3.07751 13.4292 3.23937C13.4963 3.40124 13.5309 3.57474 13.5309 3.74996C13.5309 3.92518 13.4963 4.09868 13.4292 4.26055C13.3622 4.42241 13.2638 4.56946 13.1398 4.69329L13.0998 4.73329C12.9461 4.89041 12.843 5.08997 12.8038 5.30623C12.7646 5.5225 12.7911 5.74555 12.8798 5.94663V5.99996C12.9643 6.19714 13.1047 6.3653 13.2835 6.48375C13.4624 6.6022 13.672 6.66577 13.8865 6.66663H13.9998C14.3535 6.66663 14.6926 6.8071 14.9426 7.05715C15.1927 7.3072 15.3332 7.64634 15.3332 7.99996C15.3332 8.35358 15.1927 8.69272 14.9426 8.94277C14.6926 9.19282 14.3535 9.33329 13.9998 9.33329H13.9398C13.7253 9.33415 13.5157 9.39771 13.3369 9.51616C13.158 9.63461 13.0177 9.80278 12.9332 9.99996V9.99996Z" stroke="white" stroke-width="2" stroke-linecap="round" stroke-linejoin="round"/>
</g>
<defs>
<clipPath id="clip0_202_4181">
<rect width="16" height="16" fill="white"/>
</clipPath>
</defs>
</svg>
