<svg width="24" height="24" viewBox="0 0 24 24" fill="none" xmlns="http://www.w3.org/2000/svg">
<path d="M19.3571 8C20.3233 8 21.2499 8.36875 21.933 9.02513C22.6162 9.6815 23 10.5717 23 11.5C23 12.4283 22.6162 13.3185 21.933 13.9749C21.2499 14.6313 20.3233 15 19.3571 15M9.64286 8V20.8333C9.64286 21.1428 9.51492 21.4395 9.2872 21.6583C9.05948 21.8771 8.75062 22 8.42857 22H7.21429C6.89224 22 6.58338 21.8771 6.35566 21.6583C6.12793 21.4395 6 21.1428 6 20.8333V15" stroke="#18A0FB" stroke-width="2" stroke-linecap="round" stroke-linejoin="round"/>
<path d="M11.8 7.56085L17.2288 3.23898C17.3865 3.11346 17.5785 3.03349 17.7821 3.00845C17.9857 2.9834 18.1926 3.01432 18.3785 3.09757C18.5643 3.18083 18.7215 3.31297 18.8316 3.47852C18.9417 3.64406 19.0001 3.83615 19 4.03228V17.9677C19.0001 18.1638 18.9417 18.3559 18.8316 18.5215C18.7215 18.687 18.5643 18.8192 18.3785 18.9024C18.1926 18.9857 17.9857 19.0166 17.7821 18.9916C17.5785 18.9665 17.3865 18.8865 17.2288 18.761L11.8 14.4392H2.2C1.88174 14.4392 1.57652 14.3184 1.35147 14.1034C1.12643 13.8884 1 13.5968 1 13.2928V8.70723C1 8.40319 1.12643 8.1116 1.35147 7.89662C1.57652 7.68163 1.88174 7.56085 2.2 7.56085H11.8Z" stroke="#18A0FB" stroke-width="2" stroke-linecap="round" stroke-linejoin="round"/>
</svg>
