<svg width="24" height="21" viewBox="0 0 24 21" fill="none" xmlns="http://www.w3.org/2000/svg">
<path d="M24.0032 7.86457C24.0037 7.53875 23.9179 7.21861 23.7546 6.9367C23.5912 6.65479 23.3561 6.42116 23.0732 6.25957L12.9632 0.259575C12.6718 0.0895772 12.3405 0 12.0032 0C11.6659 0 11.3346 0.0895772 11.0432 0.259575L0.918199 6.25957C0.638406 6.42559 0.406627 6.66156 0.24564 6.94427C0.0846534 7.22699 0 7.54673 0 7.87207C0 8.19741 0.0846534 8.51716 0.24564 8.79987C0.406627 9.08259 0.638406 9.31855 0.918199 9.48457L3.7982 11.1646V15.3796C3.79993 15.709 3.88639 16.0324 4.04926 16.3188C4.21214 16.6051 4.44594 16.8447 4.7282 17.0146L11.1032 20.6896C11.3878 20.8472 11.7078 20.9298 12.0332 20.9298C12.3585 20.9298 12.6786 20.8472 12.9632 20.6896L19.3382 17.0146C19.6205 16.8447 19.8543 16.6051 20.0171 16.3188C20.18 16.0324 20.2665 15.709 20.2682 15.3796V11.1196L22.1282 10.0246V14.1046H24.0032V7.86457ZM18.4082 15.3646L12.0032 19.0546L5.6732 15.3796V12.2746L11.0432 15.4696C11.3356 15.6366 11.6665 15.7245 12.0032 15.7245C12.3399 15.7245 12.6708 15.6366 12.9632 15.4696L18.3932 12.2296L18.4082 15.3646ZM12.0032 13.8496L1.8782 7.84957L12.0032 1.83457L22.1282 7.83458L12.0032 13.8496Z" fill="#18A0FB"/>
</svg>
